<svg xmlns="http://www.w3.org/2000/svg" viewBox="0 0 1080 1080" width="1080" height="1080">
  <defs>
    <radialGradient id="bg-grad" cx="50%" cy="50%" r="72%">
      <stop offset="0%" stop-color="#fffdf8"/>
      <stop offset="100%" stop-color="#f5e8d4"/>
    </radialGradient>
    <!-- Petal shape -->
    <path id="petal" d="M0,-38 C18,-24 22,-8 0,0 C-22,-8 -18,-24 0,-38"/>
    <!-- Leaf shape -->
    <path id="leaf" d="M0,-28 C12,-18 14,-6 0,2 C-14,-6 -12,-18 0,-28"/>
  </defs>

  <!-- Background -->
  <rect width="1080" height="1080" fill="url(#bg-grad)"/>

  <!-- Subtle center softener -->
  <ellipse cx="540" cy="540" rx="420" ry="420" fill="#ffffff" opacity="0.22"/>

  <!-- ═══════════════ TOP-LEFT CORNER ═══════════════ -->
  <!-- Large rose -->
  <g transform="translate(108,108)">
    <g opacity="0.85">
      <use href="#petal" fill="#e8889c" transform="rotate(0)"/>
      <use href="#petal" fill="#d97088" transform="rotate(45)"/>
      <use href="#petal" fill="#e8889c" transform="rotate(90)"/>
      <use href="#petal" fill="#d97088" transform="rotate(135)"/>
      <use href="#petal" fill="#e8889c" transform="rotate(180)"/>
      <use href="#petal" fill="#d97088" transform="rotate(225)"/>
      <use href="#petal" fill="#e8889c" transform="rotate(270)"/>
      <use href="#petal" fill="#d97088" transform="rotate(315)"/>
    </g>
    <circle r="14" fill="#e8b84a"/>
    <circle r="8" fill="#d4a038"/>
  </g>
  <!-- Medium rose TL -->
  <g transform="translate(58,168)">
    <g opacity="0.75">
      <use href="#petal" fill="#f0a8bc" transform="rotate(0) scale(0.7)"/>
      <use href="#petal" fill="#f0a8bc" transform="rotate(60) scale(0.7)"/>
      <use href="#petal" fill="#f0a8bc" transform="rotate(120) scale(0.7)"/>
      <use href="#petal" fill="#f0a8bc" transform="rotate(180) scale(0.7)"/>
      <use href="#petal" fill="#f0a8bc" transform="rotate(240) scale(0.7)"/>
      <use href="#petal" fill="#f0a8bc" transform="rotate(300) scale(0.7)"/>
    </g>
    <circle r="9" fill="#e8b84a"/>
  </g>
  <!-- Small bud TL -->
  <g transform="translate(175,58)">
    <use href="#petal" fill="#f5c0cc" transform="rotate(0) scale(0.55)"/>
    <use href="#petal" fill="#f5c0cc" transform="rotate(72) scale(0.55)"/>
    <use href="#petal" fill="#f5c0cc" transform="rotate(144) scale(0.55)"/>
    <use href="#petal" fill="#f5c0cc" transform="rotate(216) scale(0.55)"/>
    <use href="#petal" fill="#f5c0cc" transform="rotate(288) scale(0.55)"/>
    <circle r="6" fill="#e8c050"/>
  </g>
  <!-- Leaves TL -->
  <g transform="translate(140,80)" opacity="0.8">
    <use href="#leaf" fill="#7a9e6a" transform="rotate(-40) scale(1.1)"/>
    <use href="#leaf" fill="#8fb87c" transform="rotate(20) scale(0.85)"/>
  </g>
  <g transform="translate(75,140)" opacity="0.8">
    <use href="#leaf" fill="#7a9e6a" transform="rotate(50) scale(0.9)"/>
    <use href="#leaf" fill="#a0c080" transform="rotate(-20) scale(0.7)"/>
  </g>
  <!-- Vine TL -->
  <path d="M15,15 Q80,60 130,45 Q180,30 210,80 Q240,130 200,170" stroke="#8fad7a" stroke-width="2.5" fill="none" opacity="0.6"/>
  <!-- Small scattered buds TL -->
  <circle cx="44" cy="88" r="5" fill="#f5c8d0" opacity="0.8"/>
  <circle cx="88" cy="44" r="4" fill="#e8889c" opacity="0.7"/>
  <circle cx="200" cy="30" r="5" fill="#f0b8c8" opacity="0.75"/>
  <circle cx="30" cy="200" r="4" fill="#d97088" opacity="0.7"/>

  <!-- ═══════════════ TOP-RIGHT CORNER ═══════════════ -->
  <g transform="translate(972,108)">
    <g opacity="0.85">
      <use href="#petal" fill="#d97088" transform="rotate(22)"/>
      <use href="#petal" fill="#e8889c" transform="rotate(67)"/>
      <use href="#petal" fill="#d97088" transform="rotate(112)"/>
      <use href="#petal" fill="#e8889c" transform="rotate(157)"/>
      <use href="#petal" fill="#d97088" transform="rotate(202)"/>
      <use href="#petal" fill="#e8889c" transform="rotate(247)"/>
      <use href="#petal" fill="#d97088" transform="rotate(292)"/>
      <use href="#petal" fill="#e8889c" transform="rotate(337)"/>
    </g>
    <circle r="14" fill="#e8b84a"/>
    <circle r="8" fill="#d4a038"/>
  </g>
  <g transform="translate(1022,168)">
    <use href="#petal" fill="#f0a8bc" transform="rotate(30) scale(0.7)"/>
    <use href="#petal" fill="#e8889c" transform="rotate(90) scale(0.7)"/>
    <use href="#petal" fill="#f0a8bc" transform="rotate(150) scale(0.7)"/>
    <use href="#petal" fill="#e8889c" transform="rotate(210) scale(0.7)"/>
    <use href="#petal" fill="#f0a8bc" transform="rotate(270) scale(0.7)"/>
    <use href="#petal" fill="#e8889c" transform="rotate(330) scale(0.7)"/>
    <circle r="9" fill="#e8b84a"/>
  </g>
  <g transform="translate(905,58)">
    <use href="#petal" fill="#f5c0cc" transform="rotate(0) scale(0.55)"/>
    <use href="#petal" fill="#f5c0cc" transform="rotate(72) scale(0.55)"/>
    <use href="#petal" fill="#f5c0cc" transform="rotate(144) scale(0.55)"/>
    <use href="#petal" fill="#f5c0cc" transform="rotate(216) scale(0.55)"/>
    <use href="#petal" fill="#f5c0cc" transform="rotate(288) scale(0.55)"/>
    <circle r="6" fill="#e8c050"/>
  </g>
  <g transform="translate(940,80)" opacity="0.8">
    <use href="#leaf" fill="#7a9e6a" transform="rotate(40) scale(1.1)"/>
    <use href="#leaf" fill="#8fb87c" transform="rotate(-20) scale(0.85)"/>
  </g>
  <g transform="translate(1005,140)" opacity="0.8">
    <use href="#leaf" fill="#7a9e6a" transform="rotate(-50) scale(0.9)"/>
  </g>
  <path d="M1065,15 Q1000,60 950,45 Q900,30 870,80 Q840,130 880,170" stroke="#8fad7a" stroke-width="2.5" fill="none" opacity="0.6"/>
  <circle cx="1036" cy="88" r="5" fill="#f5c8d0" opacity="0.8"/>
  <circle cx="992" cy="44" r="4" fill="#e8889c" opacity="0.7"/>
  <circle cx="880" cy="30" r="5" fill="#f0b8c8" opacity="0.75"/>
  <circle cx="1050" cy="200" r="4" fill="#d97088" opacity="0.7"/>

  <!-- ═══════════════ BOTTOM-LEFT CORNER ═══════════════ -->
  <g transform="translate(108,972)">
    <g opacity="0.85">
      <use href="#petal" fill="#e8889c" transform="rotate(15)"/>
      <use href="#petal" fill="#d97088" transform="rotate(60)"/>
      <use href="#petal" fill="#e8889c" transform="rotate(105)"/>
      <use href="#petal" fill="#d97088" transform="rotate(150)"/>
      <use href="#petal" fill="#e8889c" transform="rotate(195)"/>
      <use href="#petal" fill="#d97088" transform="rotate(240)"/>
      <use href="#petal" fill="#e8889c" transform="rotate(285)"/>
      <use href="#petal" fill="#d97088" transform="rotate(330)"/>
    </g>
    <circle r="14" fill="#e8b84a"/>
    <circle r="8" fill="#d4a038"/>
  </g>
  <g transform="translate(58,912)">
    <use href="#petal" fill="#f0a8bc" transform="rotate(0) scale(0.7)"/>
    <use href="#petal" fill="#f0a8bc" transform="rotate(60) scale(0.7)"/>
    <use href="#petal" fill="#f0a8bc" transform="rotate(120) scale(0.7)"/>
    <use href="#petal" fill="#f0a8bc" transform="rotate(180) scale(0.7)"/>
    <use href="#petal" fill="#f0a8bc" transform="rotate(240) scale(0.7)"/>
    <use href="#petal" fill="#f0a8bc" transform="rotate(300) scale(0.7)"/>
    <circle r="9" fill="#e8b84a"/>
  </g>
  <g transform="translate(175,1022)">
    <use href="#petal" fill="#f5c0cc" transform="rotate(0) scale(0.55)"/>
    <use href="#petal" fill="#f5c0cc" transform="rotate(72) scale(0.55)"/>
    <use href="#petal" fill="#f5c0cc" transform="rotate(144) scale(0.55)"/>
    <use href="#petal" fill="#f5c0cc" transform="rotate(216) scale(0.55)"/>
    <use href="#petal" fill="#f5c0cc" transform="rotate(288) scale(0.55)"/>
    <circle r="6" fill="#e8c050"/>
  </g>
  <g transform="translate(140,1000)" opacity="0.8">
    <use href="#leaf" fill="#7a9e6a" transform="rotate(40) scale(1.1)"/>
    <use href="#leaf" fill="#8fb87c" transform="rotate(-20) scale(0.85)"/>
  </g>
  <g transform="translate(75,940)" opacity="0.8">
    <use href="#leaf" fill="#7a9e6a" transform="rotate(-50) scale(0.9)"/>
  </g>
  <path d="M15,1065 Q80,1020 130,1035 Q180,1050 210,1000 Q240,950 200,910" stroke="#8fad7a" stroke-width="2.5" fill="none" opacity="0.6"/>
  <circle cx="44" cy="992" r="5" fill="#f5c8d0" opacity="0.8"/>
  <circle cx="88" cy="1036" r="4" fill="#e8889c" opacity="0.7"/>
  <circle cx="200" cy="1050" r="5" fill="#f0b8c8" opacity="0.75"/>
  <circle cx="30" cy="880" r="4" fill="#d97088" opacity="0.7"/>

  <!-- ═══════════════ BOTTOM-RIGHT CORNER ═══════════════ -->
  <g transform="translate(972,972)">
    <g opacity="0.85">
      <use href="#petal" fill="#d97088" transform="rotate(0)"/>
      <use href="#petal" fill="#e8889c" transform="rotate(45)"/>
      <use href="#petal" fill="#d97088" transform="rotate(90)"/>
      <use href="#petal" fill="#e8889c" transform="rotate(135)"/>
      <use href="#petal" fill="#d97088" transform="rotate(180)"/>
      <use href="#petal" fill="#e8889c" transform="rotate(225)"/>
      <use href="#petal" fill="#d97088" transform="rotate(270)"/>
      <use href="#petal" fill="#e8889c" transform="rotate(315)"/>
    </g>
    <circle r="14" fill="#e8b84a"/>
    <circle r="8" fill="#d4a038"/>
  </g>
  <g transform="translate(1022,912)">
    <use href="#petal" fill="#f0a8bc" transform="rotate(0) scale(0.7)"/>
    <use href="#petal" fill="#f0a8bc" transform="rotate(60) scale(0.7)"/>
    <use href="#petal" fill="#f0a8bc" transform="rotate(120) scale(0.7)"/>
    <use href="#petal" fill="#f0a8bc" transform="rotate(180) scale(0.7)"/>
    <use href="#petal" fill="#f0a8bc" transform="rotate(240) scale(0.7)"/>
    <use href="#petal" fill="#f0a8bc" transform="rotate(300) scale(0.7)"/>
    <circle r="9" fill="#e8b84a"/>
  </g>
  <g transform="translate(905,1022)">
    <use href="#petal" fill="#f5c0cc" transform="rotate(0) scale(0.55)"/>
    <use href="#petal" fill="#f5c0cc" transform="rotate(72) scale(0.55)"/>
    <use href="#petal" fill="#f5c0cc" transform="rotate(144) scale(0.55)"/>
    <use href="#petal" fill="#f5c0cc" transform="rotate(216) scale(0.55)"/>
    <use href="#petal" fill="#f5c0cc" transform="rotate(288) scale(0.55)"/>
    <circle r="6" fill="#e8c050"/>
  </g>
  <g transform="translate(940,1000)" opacity="0.8">
    <use href="#leaf" fill="#7a9e6a" transform="rotate(-40) scale(1.1)"/>
    <use href="#leaf" fill="#8fb87c" transform="rotate(20) scale(0.85)"/>
  </g>
  <g transform="translate(1005,940)" opacity="0.8">
    <use href="#leaf" fill="#7a9e6a" transform="rotate(50) scale(0.9)"/>
  </g>
  <path d="M1065,1065 Q1000,1020 950,1035 Q900,1050 870,1000 Q840,950 880,910" stroke="#8fad7a" stroke-width="2.5" fill="none" opacity="0.6"/>
  <circle cx="1036" cy="992" r="5" fill="#f5c8d0" opacity="0.8"/>
  <circle cx="992" cy="1036" r="4" fill="#e8889c" opacity="0.7"/>
  <circle cx="880" cy="1050" r="5" fill="#f0b8c8" opacity="0.75"/>
  <circle cx="1050" cy="880" r="4" fill="#d97088" opacity="0.7"/>

  <!-- Thin elegant border -->
  <rect x="22" y="22" width="1036" height="1036" fill="none" stroke="#d4a8b0" stroke-width="1.2" opacity="0.5"/>
  <rect x="30" y="30" width="1020" height="1020" fill="none" stroke="#e8c0c8" stroke-width="0.6" opacity="0.4"/>
</svg>
