<svg xmlns="http://www.w3.org/2000/svg" viewBox="0 0 1080 1080" width="1080" height="1080">
  <defs>
    <linearGradient id="invite-bg" x1="0%" y1="0%" x2="100%" y2="100%">
      <stop offset="0%" stop-color="#fdf5e4"/>
      <stop offset="50%" stop-color="#faf0d8"/>
      <stop offset="100%" stop-color="#f5e8c8"/>
    </linearGradient>
    <radialGradient id="invite-center" cx="50%" cy="50%" r="58%">
      <stop offset="0%" stop-color="#fffdf5" stop-opacity="0.5"/>
      <stop offset="100%" stop-color="#f0e0b0" stop-opacity="0"/>
    </radialGradient>
    <!-- Petal -->
    <path id="ipetal" d="M0,-32 C16,-20 18,-7 0,2 C-18,-7 -16,-20 0,-32"/>
    <!-- Large petal -->
    <path id="lpetal" d="M0,-44 C22,-28 25,-10 0,3 C-25,-10 -22,-28 0,-44"/>
    <!-- Leaf -->
    <path id="ileaf" d="M0,-24 C10,-15 12,-5 0,2 C-12,-5 -10,-15 0,-24"/>
  </defs>

  <!-- Background -->
  <rect width="1080" height="1080" fill="url(#invite-bg)"/>
  <rect width="1080" height="1080" fill="url(#invite-center)"/>

  <!-- Outer border — double gold lines -->
  <rect x="20" y="20" width="1040" height="1040" fill="none" stroke="#a07840" stroke-width="2.5" opacity="0.7"/>
  <rect x="28" y="28" width="1024" height="1024" fill="none" stroke="#c4944c" stroke-width="1.2" opacity="0.5"/>
  <rect x="36" y="36" width="1008" height="1008" fill="none" stroke="#a07840" stroke-width="0.8" opacity="0.35"/>

  <!-- ═══════════════ TOP-LEFT floral cluster ═══════════════ -->
  <!-- Main rose -->
  <g transform="translate(105,105)">
    <use href="#lpetal" fill="#c4788a" transform="rotate(0)" opacity="0.9"/>
    <use href="#lpetal" fill="#d4889a" transform="rotate(45)" opacity="0.85"/>
    <use href="#lpetal" fill="#c4788a" transform="rotate(90)" opacity="0.9"/>
    <use href="#lpetal" fill="#d4889a" transform="rotate(135)" opacity="0.85"/>
    <use href="#lpetal" fill="#c4788a" transform="rotate(180)" opacity="0.9"/>
    <use href="#lpetal" fill="#d4889a" transform="rotate(225)" opacity="0.85"/>
    <use href="#lpetal" fill="#c4788a" transform="rotate(270)" opacity="0.9"/>
    <use href="#lpetal" fill="#d4889a" transform="rotate(315)" opacity="0.85"/>
    <!-- Inner petals -->
    <use href="#ipetal" fill="#e09aac" transform="rotate(22) scale(0.7)" opacity="0.9"/>
    <use href="#ipetal" fill="#e09aac" transform="rotate(67) scale(0.7)" opacity="0.9"/>
    <use href="#ipetal" fill="#e09aac" transform="rotate(112) scale(0.7)" opacity="0.9"/>
    <use href="#ipetal" fill="#e09aac" transform="rotate(157) scale(0.7)" opacity="0.9"/>
    <use href="#ipetal" fill="#e09aac" transform="rotate(202) scale(0.7)" opacity="0.9"/>
    <use href="#ipetal" fill="#e09aac" transform="rotate(247) scale(0.7)" opacity="0.9"/>
    <use href="#ipetal" fill="#e09aac" transform="rotate(292) scale(0.7)" opacity="0.9"/>
    <use href="#ipetal" fill="#e09aac" transform="rotate(337) scale(0.7)" opacity="0.9"/>
    <circle r="13" fill="#d4a04a"/>
    <circle r="7" fill="#b88030"/>
  </g>
  <!-- Secondary rose TL -->
  <g transform="translate(55,172)">
    <use href="#ipetal" fill="#d4889a" transform="rotate(0)" opacity="0.8"/>
    <use href="#ipetal" fill="#c4788a" transform="rotate(60)" opacity="0.8"/>
    <use href="#ipetal" fill="#d4889a" transform="rotate(120)" opacity="0.8"/>
    <use href="#ipetal" fill="#c4788a" transform="rotate(180)" opacity="0.8"/>
    <use href="#ipetal" fill="#d4889a" transform="rotate(240)" opacity="0.8"/>
    <use href="#ipetal" fill="#c4788a" transform="rotate(300)" opacity="0.8"/>
    <circle r="9" fill="#d4a04a"/>
  </g>
  <!-- Bud TL -->
  <g transform="translate(172,55)">
    <use href="#ipetal" fill="#e0a0b0" transform="rotate(0) scale(0.6)" opacity="0.75"/>
    <use href="#ipetal" fill="#e0a0b0" transform="rotate(72) scale(0.6)" opacity="0.75"/>
    <use href="#ipetal" fill="#e0a0b0" transform="rotate(144) scale(0.6)" opacity="0.75"/>
    <use href="#ipetal" fill="#e0a0b0" transform="rotate(216) scale(0.6)" opacity="0.75"/>
    <use href="#ipetal" fill="#e0a0b0" transform="rotate(288) scale(0.6)" opacity="0.75"/>
    <circle r="5" fill="#d4a04a"/>
  </g>
  <!-- Tiny bud -->
  <g transform="translate(36,80)">
    <use href="#ipetal" fill="#e8b0bc" transform="rotate(20) scale(0.45)" opacity="0.7"/>
    <use href="#ipetal" fill="#e8b0bc" transform="rotate(92) scale(0.45)" opacity="0.7"/>
    <use href="#ipetal" fill="#e8b0bc" transform="rotate(164) scale(0.45)" opacity="0.7"/>
    <use href="#ipetal" fill="#e8b0bc" transform="rotate(236) scale(0.45)" opacity="0.7"/>
    <use href="#ipetal" fill="#e8b0bc" transform="rotate(308) scale(0.45)" opacity="0.7"/>
    <circle r="3.5" fill="#d4a04a"/>
  </g>
  <!-- Leaves TL -->
  <g transform="translate(148,75)" opacity="0.85">
    <use href="#ileaf" fill="#6a8a5a" transform="rotate(-50) scale(1.3)"/>
    <use href="#ileaf" fill="#7a9e6a" transform="rotate(10) scale(1.0)"/>
  </g>
  <g transform="translate(70,148)" opacity="0.85">
    <use href="#ileaf" fill="#6a8a5a" transform="rotate(40) scale(1.3)"/>
    <use href="#ileaf" fill="#8aaa78" transform="rotate(-15) scale(0.9)"/>
  </g>
  <g transform="translate(50,50)" opacity="0.7">
    <use href="#ileaf" fill="#7a9e6a" transform="rotate(-30) scale(0.8)"/>
  </g>
  <!-- Vines TL -->
  <path d="M20,20 Q75,65 140,50 Q195,35 215,90 Q235,140 185,175" stroke="#7a9a64" stroke-width="2.2" fill="none" opacity="0.55"/>
  <path d="M20,20 Q55,80 50,145 Q45,195 90,210" stroke="#7a9a64" stroke-width="1.8" fill="none" opacity="0.45"/>

  <!-- ═══════════════ TOP-RIGHT floral cluster ═══════════════ -->
  <g transform="translate(975,105)">
    <use href="#lpetal" fill="#d4889a" transform="rotate(22)" opacity="0.9"/>
    <use href="#lpetal" fill="#c4788a" transform="rotate(67)" opacity="0.85"/>
    <use href="#lpetal" fill="#d4889a" transform="rotate(112)" opacity="0.9"/>
    <use href="#lpetal" fill="#c4788a" transform="rotate(157)" opacity="0.85"/>
    <use href="#lpetal" fill="#d4889a" transform="rotate(202)" opacity="0.9"/>
    <use href="#lpetal" fill="#c4788a" transform="rotate(247)" opacity="0.85"/>
    <use href="#lpetal" fill="#d4889a" transform="rotate(292)" opacity="0.9"/>
    <use href="#lpetal" fill="#c4788a" transform="rotate(337)" opacity="0.85"/>
    <use href="#ipetal" fill="#e09aac" transform="rotate(0) scale(0.7)" opacity="0.9"/>
    <use href="#ipetal" fill="#e09aac" transform="rotate(45) scale(0.7)" opacity="0.9"/>
    <use href="#ipetal" fill="#e09aac" transform="rotate(90) scale(0.7)" opacity="0.9"/>
    <use href="#ipetal" fill="#e09aac" transform="rotate(135) scale(0.7)" opacity="0.9"/>
    <use href="#ipetal" fill="#e09aac" transform="rotate(180) scale(0.7)" opacity="0.9"/>
    <use href="#ipetal" fill="#e09aac" transform="rotate(225) scale(0.7)" opacity="0.9"/>
    <use href="#ipetal" fill="#e09aac" transform="rotate(270) scale(0.7)" opacity="0.9"/>
    <use href="#ipetal" fill="#e09aac" transform="rotate(315) scale(0.7)" opacity="0.9"/>
    <circle r="13" fill="#d4a04a"/>
    <circle r="7" fill="#b88030"/>
  </g>
  <g transform="translate(1025,172)">
    <use href="#ipetal" fill="#d4889a" transform="rotate(0)" opacity="0.8"/>
    <use href="#ipetal" fill="#c4788a" transform="rotate(60)" opacity="0.8"/>
    <use href="#ipetal" fill="#d4889a" transform="rotate(120)" opacity="0.8"/>
    <use href="#ipetal" fill="#c4788a" transform="rotate(180)" opacity="0.8"/>
    <use href="#ipetal" fill="#d4889a" transform="rotate(240)" opacity="0.8"/>
    <use href="#ipetal" fill="#c4788a" transform="rotate(300)" opacity="0.8"/>
    <circle r="9" fill="#d4a04a"/>
  </g>
  <g transform="translate(908,55)">
    <use href="#ipetal" fill="#e0a0b0" transform="rotate(0) scale(0.6)" opacity="0.75"/>
    <use href="#ipetal" fill="#e0a0b0" transform="rotate(72) scale(0.6)" opacity="0.75"/>
    <use href="#ipetal" fill="#e0a0b0" transform="rotate(144) scale(0.6)" opacity="0.75"/>
    <use href="#ipetal" fill="#e0a0b0" transform="rotate(216) scale(0.6)" opacity="0.75"/>
    <use href="#ipetal" fill="#e0a0b0" transform="rotate(288) scale(0.6)" opacity="0.75"/>
    <circle r="5" fill="#d4a04a"/>
  </g>
  <g transform="translate(1044,80)">
    <use href="#ipetal" fill="#e8b0bc" transform="rotate(20) scale(0.45)" opacity="0.7"/>
    <use href="#ipetal" fill="#e8b0bc" transform="rotate(92) scale(0.45)" opacity="0.7"/>
    <use href="#ipetal" fill="#e8b0bc" transform="rotate(164) scale(0.45)" opacity="0.7"/>
    <use href="#ipetal" fill="#e8b0bc" transform="rotate(236) scale(0.45)" opacity="0.7"/>
    <use href="#ipetal" fill="#e8b0bc" transform="rotate(308) scale(0.45)" opacity="0.7"/>
    <circle r="3.5" fill="#d4a04a"/>
  </g>
  <g transform="translate(932,75)" opacity="0.85">
    <use href="#ileaf" fill="#6a8a5a" transform="rotate(50) scale(1.3)"/>
    <use href="#ileaf" fill="#7a9e6a" transform="rotate(-10) scale(1.0)"/>
  </g>
  <g transform="translate(1010,148)" opacity="0.85">
    <use href="#ileaf" fill="#6a8a5a" transform="rotate(-40) scale(1.3)"/>
  </g>
  <path d="M1060,20 Q1005,65 940,50 Q885,35 865,90 Q845,140 895,175" stroke="#7a9a64" stroke-width="2.2" fill="none" opacity="0.55"/>
  <path d="M1060,20 Q1025,80 1030,145 Q1035,195 990,210" stroke="#7a9a64" stroke-width="1.8" fill="none" opacity="0.45"/>

  <!-- ═══════════════ BOTTOM-LEFT floral cluster ═══════════════ -->
  <g transform="translate(105,975)">
    <use href="#lpetal" fill="#c4788a" transform="rotate(10)" opacity="0.9"/>
    <use href="#lpetal" fill="#d4889a" transform="rotate(55)" opacity="0.85"/>
    <use href="#lpetal" fill="#c4788a" transform="rotate(100)" opacity="0.9"/>
    <use href="#lpetal" fill="#d4889a" transform="rotate(145)" opacity="0.85"/>
    <use href="#lpetal" fill="#c4788a" transform="rotate(190)" opacity="0.9"/>
    <use href="#lpetal" fill="#d4889a" transform="rotate(235)" opacity="0.85"/>
    <use href="#lpetal" fill="#c4788a" transform="rotate(280)" opacity="0.9"/>
    <use href="#lpetal" fill="#d4889a" transform="rotate(325)" opacity="0.85"/>
    <use href="#ipetal" fill="#e09aac" transform="rotate(32) scale(0.7)" opacity="0.9"/>
    <use href="#ipetal" fill="#e09aac" transform="rotate(77) scale(0.7)" opacity="0.9"/>
    <use href="#ipetal" fill="#e09aac" transform="rotate(122) scale(0.7)" opacity="0.9"/>
    <use href="#ipetal" fill="#e09aac" transform="rotate(167) scale(0.7)" opacity="0.9"/>
    <use href="#ipetal" fill="#e09aac" transform="rotate(212) scale(0.7)" opacity="0.9"/>
    <use href="#ipetal" fill="#e09aac" transform="rotate(257) scale(0.7)" opacity="0.9"/>
    <use href="#ipetal" fill="#e09aac" transform="rotate(302) scale(0.7)" opacity="0.9"/>
    <use href="#ipetal" fill="#e09aac" transform="rotate(347) scale(0.7)" opacity="0.9"/>
    <circle r="13" fill="#d4a04a"/>
    <circle r="7" fill="#b88030"/>
  </g>
  <g transform="translate(55,908)">
    <use href="#ipetal" fill="#d4889a" transform="rotate(0)" opacity="0.8"/>
    <use href="#ipetal" fill="#c4788a" transform="rotate(60)" opacity="0.8"/>
    <use href="#ipetal" fill="#d4889a" transform="rotate(120)" opacity="0.8"/>
    <use href="#ipetal" fill="#c4788a" transform="rotate(180)" opacity="0.8"/>
    <use href="#ipetal" fill="#d4889a" transform="rotate(240)" opacity="0.8"/>
    <use href="#ipetal" fill="#c4788a" transform="rotate(300)" opacity="0.8"/>
    <circle r="9" fill="#d4a04a"/>
  </g>
  <g transform="translate(172,1025)">
    <use href="#ipetal" fill="#e0a0b0" transform="rotate(0) scale(0.6)" opacity="0.75"/>
    <use href="#ipetal" fill="#e0a0b0" transform="rotate(72) scale(0.6)" opacity="0.75"/>
    <use href="#ipetal" fill="#e0a0b0" transform="rotate(144) scale(0.6)" opacity="0.75"/>
    <use href="#ipetal" fill="#e0a0b0" transform="rotate(216) scale(0.6)" opacity="0.75"/>
    <use href="#ipetal" fill="#e0a0b0" transform="rotate(288) scale(0.6)" opacity="0.75"/>
    <circle r="5" fill="#d4a04a"/>
  </g>
  <g transform="translate(148,1005)" opacity="0.85">
    <use href="#ileaf" fill="#6a8a5a" transform="rotate(-40) scale(1.3)"/>
    <use href="#ileaf" fill="#7a9e6a" transform="rotate(15) scale(1.0)"/>
  </g>
  <g transform="translate(70,932)" opacity="0.85">
    <use href="#ileaf" fill="#6a8a5a" transform="rotate(50) scale(1.3)"/>
  </g>
  <path d="M20,1060 Q75,1015 140,1030 Q195,1045 215,990 Q235,940 185,905" stroke="#7a9a64" stroke-width="2.2" fill="none" opacity="0.55"/>
  <path d="M20,1060 Q55,1000 50,935 Q45,885 90,870" stroke="#7a9a64" stroke-width="1.8" fill="none" opacity="0.45"/>

  <!-- ═══════════════ BOTTOM-RIGHT floral cluster ═══════════════ -->
  <g transform="translate(975,975)">
    <use href="#lpetal" fill="#d4889a" transform="rotate(0)" opacity="0.9"/>
    <use href="#lpetal" fill="#c4788a" transform="rotate(45)" opacity="0.85"/>
    <use href="#lpetal" fill="#d4889a" transform="rotate(90)" opacity="0.9"/>
    <use href="#lpetal" fill="#c4788a" transform="rotate(135)" opacity="0.85"/>
    <use href="#lpetal" fill="#d4889a" transform="rotate(180)" opacity="0.9"/>
    <use href="#lpetal" fill="#c4788a" transform="rotate(225)" opacity="0.85"/>
    <use href="#lpetal" fill="#d4889a" transform="rotate(270)" opacity="0.9"/>
    <use href="#lpetal" fill="#c4788a" transform="rotate(315)" opacity="0.85"/>
    <use href="#ipetal" fill="#e09aac" transform="rotate(22) scale(0.7)" opacity="0.9"/>
    <use href="#ipetal" fill="#e09aac" transform="rotate(67) scale(0.7)" opacity="0.9"/>
    <use href="#ipetal" fill="#e09aac" transform="rotate(112) scale(0.7)" opacity="0.9"/>
    <use href="#ipetal" fill="#e09aac" transform="rotate(157) scale(0.7)" opacity="0.9"/>
    <use href="#ipetal" fill="#e09aac" transform="rotate(202) scale(0.7)" opacity="0.9"/>
    <use href="#ipetal" fill="#e09aac" transform="rotate(247) scale(0.7)" opacity="0.9"/>
    <use href="#ipetal" fill="#e09aac" transform="rotate(292) scale(0.7)" opacity="0.9"/>
    <use href="#ipetal" fill="#e09aac" transform="rotate(337) scale(0.7)" opacity="0.9"/>
    <circle r="13" fill="#d4a04a"/>
    <circle r="7" fill="#b88030"/>
  </g>
  <g transform="translate(1025,908)">
    <use href="#ipetal" fill="#d4889a" transform="rotate(0)" opacity="0.8"/>
    <use href="#ipetal" fill="#c4788a" transform="rotate(60)" opacity="0.8"/>
    <use href="#ipetal" fill="#d4889a" transform="rotate(120)" opacity="0.8"/>
    <use href="#ipetal" fill="#c4788a" transform="rotate(180)" opacity="0.8"/>
    <use href="#ipetal" fill="#d4889a" transform="rotate(240)" opacity="0.8"/>
    <use href="#ipetal" fill="#c4788a" transform="rotate(300)" opacity="0.8"/>
    <circle r="9" fill="#d4a04a"/>
  </g>
  <g transform="translate(908,1025)">
    <use href="#ipetal" fill="#e0a0b0" transform="rotate(0) scale(0.6)" opacity="0.75"/>
    <use href="#ipetal" fill="#e0a0b0" transform="rotate(72) scale(0.6)" opacity="0.75"/>
    <use href="#ipetal" fill="#e0a0b0" transform="rotate(144) scale(0.6)" opacity="0.75"/>
    <use href="#ipetal" fill="#e0a0b0" transform="rotate(216) scale(0.6)" opacity="0.75"/>
    <use href="#ipetal" fill="#e0a0b0" transform="rotate(288) scale(0.6)" opacity="0.75"/>
    <circle r="5" fill="#d4a04a"/>
  </g>
  <g transform="translate(932,1005)" opacity="0.85">
    <use href="#ileaf" fill="#6a8a5a" transform="rotate(40) scale(1.3)"/>
    <use href="#ileaf" fill="#7a9e6a" transform="rotate(-15) scale(1.0)"/>
  </g>
  <g transform="translate(1010,932)" opacity="0.85">
    <use href="#ileaf" fill="#6a8a5a" transform="rotate(-50) scale(1.3)"/>
  </g>
  <path d="M1060,1060 Q1005,1015 940,1030 Q885,1045 865,990 Q845,940 895,905" stroke="#7a9a64" stroke-width="2.2" fill="none" opacity="0.55"/>
  <path d="M1060,1060 Q1025,1000 1030,935 Q1035,885 990,870" stroke="#7a9a64" stroke-width="1.8" fill="none" opacity="0.45"/>

  <!-- ═══════════════ ELEGANT TEXT ELEMENTS ═══════════════ -->
  <!-- Decorative top divider -->
  <line x1="260" y1="112" x2="820" y2="112" stroke="#a07840" stroke-width="0.8" opacity="0.4"/>
  <polygon points="540,106 544,112 540,118 536,112" fill="#a07840" opacity="0.4"/>

  <!-- Main title — top center (kept subtle so it doesn't compete with the photo) -->
  <text x="540" y="82"
        text-anchor="middle"
        font-family="Georgia, 'Palatino Linotype', Palatino, serif"
        font-size="30"
        font-style="italic"
        fill="#8a5c38"
        letter-spacing="3"
        opacity="0.65">Mailen &amp; Javier</text>

  <!-- Decorative bottom divider -->
  <line x1="260" y1="968" x2="820" y2="968" stroke="#a07840" stroke-width="0.8" opacity="0.4"/>
  <polygon points="540,962 544,968 540,974 536,968" fill="#a07840" opacity="0.4"/>

  <!-- Subtitle — bottom center -->
  <text x="540" y="1002"
        text-anchor="middle"
        font-family="Georgia, 'Palatino Linotype', Palatino, serif"
        font-size="20"
        fill="#8a5c38"
        letter-spacing="6"
        opacity="0.55">2025</text>
</svg>
